<svg width="331" height="290" viewBox="0 0 331 290" fill="none" xmlns="http://www.w3.org/2000/svg">
<path d="M30 4.5H167.073C173.753 4.5 180.169 7.07056 184.996 11.6641L185.458 12.1152L224.385 51.042C229.261 55.9179 232 62.5312 232 69.4268V259.5C232 273.859 220.359 285.5 206 285.5H30C15.6406 285.5 4 273.859 4 259.5V30.5C4 16.1406 15.6406 4.5 30 4.5Z" stroke="black" stroke-width="8"/>
<path d="M114.71 176.5H77.5096L69.9096 200C69.8246 200.429 69.5826 200.81 69.2311 201.069C68.8795 201.328 68.4438 201.446 68.0096 201.4H49.2096C48.1096 201.4 47.8096 200.8 48.1096 199.6L80.3096 106.9C80.6096 105.9 80.9096 104.8 81.3096 103.6C81.712 101.457 81.9129 99.281 81.9096 97.1004C81.8796 96.8499 81.9454 96.5974 82.0937 96.3934C82.2421 96.1894 82.4621 96.049 82.7096 96.0004H108.61C109.41 96.0004 109.81 96.3004 109.91 96.8004L146.41 199.8C146.71 200.9 146.41 201.4 145.41 201.4H124.51C124.156 201.434 123.802 201.343 123.509 201.142C123.217 200.94 123.004 200.643 122.91 200.3L114.71 176.5ZM83.3096 156.2H108.71C108.11 154.1 107.31 151.6 106.41 149C105.51 146.4 104.61 143.4 103.71 140.4C102.81 137.4 101.81 134.3 100.81 131.2C99.8096 128.1 98.9095 125.2 98.1096 122.3C97.3096 119.4 96.6096 116.9 95.9096 114.5H95.7096C94.8108 118.859 93.6758 123.165 92.3096 127.4C90.8096 132.2 89.3096 137.2 87.7096 142.2C86.3096 147.3 84.8096 152 83.3096 156.2Z" fill="black"/>
<path d="M168.21 113.1C166.568 113.136 164.936 112.845 163.408 112.244C161.88 111.644 160.487 110.745 159.31 109.6C157.018 107.095 155.798 103.793 155.91 100.4C155.85 98.7472 156.141 97.1002 156.761 95.5667C157.381 94.0331 158.318 92.6476 159.51 91.5004C161.913 89.2286 165.102 87.9744 168.41 88.0004C172.31 88.0004 175.31 89.2004 177.51 91.5004C179.725 93.9251 180.909 97.1175 180.81 100.4C180.871 102.09 180.592 103.775 179.991 105.355C179.39 106.935 178.478 108.379 177.31 109.6C176.131 110.801 174.709 111.734 173.139 112.338C171.57 112.942 169.888 113.202 168.21 113.1ZM157.01 199.9V122.9C157.01 121.9 157.41 121.5 158.31 121.5H178.11C179.01 121.5 179.41 122 179.41 122.9V199.9C179.41 201 179.01 201.5 178.11 201.5H158.51C158.299 201.518 158.088 201.487 157.891 201.412C157.694 201.336 157.517 201.216 157.373 201.063C157.229 200.909 157.121 200.724 157.058 200.523C156.995 200.322 156.979 200.109 157.01 199.9Z" fill="black"/>
</svg>
