<svg width="331" height="290" viewBox="0 0 331 290" fill="none" xmlns="http://www.w3.org/2000/svg">
<path d="M30 4.5H167.073C173.753 4.5 180.169 7.07056 184.996 11.6641L185.458 12.1152L224.385 51.042C229.261 55.9179 232 62.5312 232 69.4268V259.5C232 273.859 220.359 285.5 206 285.5H30C15.6406 285.5 4 273.859 4 259.5V30.5C4 16.1406 15.6406 4.5 30 4.5Z" stroke="black" stroke-width="8"/>
<path d="M97.4 176H60.2L52.6 199.6C52.5151 200.028 52.2731 200.409 51.9215 200.668C51.57 200.927 51.1343 201.046 50.7 201H31.9C30.8 201 30.5 200.4 30.8 199.2L63 106.9C63.3 105.9 63.6 105 64 103.8C64.4024 101.657 64.6033 99.4806 64.6 97.2999C64.57 97.0495 64.6358 96.797 64.7842 96.593C64.9325 96.389 65.1525 96.2486 65.4 96.2H91.3C92 96.2 92.5 96.5 92.6 97L129.1 199.5C129.4 200.6 129.1 201.1 128.1 201.1H107.2C106.847 201.134 106.492 201.042 106.2 200.841C105.907 200.64 105.695 200.342 105.6 200L97.4 176ZM66 156.1H91.4C90.8 154 90 151.5 89.1 148.9C88.2 146.3 87.3 143.3 86.4 140.3C85.5 137.3 84.5 134.2 83.5 131.1C82.5 128 81.6 125.1 80.8 122.2C80 119.3 79.3 116.8 78.6 114.4H78.4C77.5013 118.758 76.3663 123.065 75 127.3C73.5 132.1 72 137.1 70.4 142.1C69.1 147.2 67.5 151.9 66 156.1Z" fill="black"/>
<path d="M188.4 166.8H156.7C157.078 169.956 158.136 172.992 159.8 175.7C161.567 178.395 164.114 180.488 167.1 181.7C171.142 183.429 175.505 184.281 179.9 184.2C183.392 184.136 186.872 183.768 190.3 183.1C193.35 182.701 196.339 181.928 199.2 180.8C199.7 180.4 200 180.6 200 181.6V196.9C199.982 197.307 199.915 197.71 199.8 198.1C199.619 198.381 199.381 198.619 199.1 198.8C195.902 200.204 192.543 201.212 189.1 201.8C184.422 202.699 179.662 203.102 174.9 203C167.3 203 160.9 201.8 155.7 199.5C150.807 197.376 146.488 194.12 143.1 190C139.934 186.147 137.586 181.69 136.2 176.9C133.27 166.923 133.409 156.296 136.6 146.4C138.195 141.393 140.741 136.741 144.1 132.7C147.407 128.704 151.533 125.464 156.2 123.2C160.9 120.9 166.5 120.1 172.9 120.1C178.232 119.976 183.526 121.035 188.4 123.2C192.497 124.976 196.1 127.721 198.9 131.2C201.558 134.615 203.59 138.475 204.9 142.6C206.172 146.541 206.813 150.659 206.8 154.8C206.8 157.2 206.7 159.3 206.6 161.2C206.5 163.1 206.3 164.5 206.2 165.4C206.156 165.746 205.992 166.066 205.736 166.304C205.48 166.541 205.149 166.682 204.8 166.7C204.2 166.7 203.1 166.8 201.5 166.9C199.575 167.119 197.638 167.219 195.7 167.2C193.4 167.2 191 166.8 188.4 166.8ZM156.7 152.2H177.8C180.4 152.2 182.3 152.2 183.5 152.1C184.322 152.031 185.113 151.756 185.8 151.3V150.3C185.804 149.042 185.601 147.792 185.2 146.6C184.325 143.864 182.583 141.486 180.238 139.827C177.893 138.167 175.072 137.315 172.2 137.4C169.486 137.248 166.786 137.884 164.426 139.233C162.066 140.582 160.147 142.585 158.9 145C157.733 147.246 156.988 149.686 156.7 152.2Z" fill="black"/>
</svg>
