<svg width="331" height="290" viewBox="0 0 331 290" fill="none" xmlns="http://www.w3.org/2000/svg">
<path d="M30 4.5H167.073C173.753 4.5 180.169 7.07056 184.996 11.6641L185.458 12.1152L224.385 51.042C229.261 55.9179 232 62.5312 232 69.4268V259.5C232 273.859 220.359 285.5 206 285.5H30C15.6406 285.5 4 273.859 4 259.5V30.5C4 16.1406 15.6406 4.5 30 4.5Z" stroke="black" stroke-width="8"/>
<path d="M48 199.6V96.7C48 96 48.3 95.6 49 95.6C50.7 95.6 52.3 95.6 54.6 95.5C56.9 95.4 59.5 95.4 62.2 95.3C64.9 95.2 67.8 95.2 70.9 95.1C74 95 77 95 80 95C88.2 95 95 96 100.6 98.1C105.62 99.8048 110.197 102.606 114 106.3C117.222 109.533 119.712 113.421 121.3 117.7C122.814 121.867 123.592 126.266 123.6 130.7C123.6 139.3 121.6 146.4 117.6 152C113.581 157.592 107.971 161.844 101.5 164.2C94.7 166.7 87.2 167.6 79 167.6C76.6 167.6 75 167.6 74 167.5C73 167.4 71.6 167.4 69.7 167.4V199.5C69.7223 199.665 69.7114 199.832 69.6678 199.992C69.6242 200.152 69.5489 200.302 69.4463 200.433C69.3437 200.563 69.2159 200.672 69.0705 200.752C68.9252 200.833 68.7652 200.883 68.6 200.9H49.2C48.4 200.9 48 200.5 48 199.6ZM69.8 114.9V148.5C71.2 148.6 72.5 148.7 73.7 148.7H79C82.9038 148.705 86.7843 148.097 90.5 146.9C93.6879 145.963 96.536 144.122 98.7 141.6C100.8 139.1 101.8 135.7 101.8 131.3C101.894 128.175 101.096 125.088 99.5 122.4C97.8326 119.804 95.3804 117.807 92.5 116.7C88.7459 115.23 84.729 114.549 80.7 114.7C78.1 114.7 75.8 114.7 73.9 114.8C72.5331 114.711 71.1609 114.744 69.8 114.9Z" fill="black"/>
<path d="M186 142.4C182.981 140.81 179.747 139.665 176.4 139C172.724 138.168 168.969 137.732 165.2 137.7C163.176 137.63 161.153 137.866 159.2 138.4C157.954 138.659 156.85 139.372 156.1 140.4C155.595 141.211 155.318 142.144 155.3 143.1C155.347 144.051 155.697 144.963 156.3 145.7C157.248 146.812 158.403 147.729 159.7 148.4C162 149.6 164.4 150.7 166.8 151.7C172.203 153.519 177.372 155.969 182.2 159C185.484 161.065 188.2 163.918 190.1 167.3C191.707 170.49 192.497 174.029 192.4 177.6C192.481 182.327 191.121 186.966 188.5 190.9C185.711 194.892 181.819 197.985 177.3 199.8C172.4 201.9 166.4 203 159.2 203C154.635 203.018 150.079 202.583 145.6 201.7C142.073 201.091 138.643 200.014 135.4 198.5C135.051 198.325 134.761 198.052 134.566 197.714C134.371 197.377 134.278 196.99 134.3 196.6V179.2C134.291 179.029 134.323 178.859 134.393 178.702C134.462 178.546 134.567 178.408 134.7 178.3C134.841 178.218 135.004 178.183 135.167 178.201C135.329 178.219 135.481 178.289 135.6 178.4C139.452 180.671 143.636 182.324 148 183.3C151.853 184.303 155.819 184.807 159.8 184.8C163.6 184.8 166.3 184.3 168.1 183.4C168.903 183.029 169.583 182.437 170.062 181.693C170.54 180.949 170.796 180.084 170.8 179.2C170.8 177.8 170 176.5 168.4 175.2C166.8 173.9 163.5 172.4 158.6 170.5C153.573 168.729 148.8 166.308 144.4 163.3C141.267 161.067 138.67 158.163 136.8 154.8C135.204 151.642 134.414 148.138 134.5 144.6C134.515 140.333 135.69 136.15 137.9 132.5C140.44 128.486 144.087 125.291 148.4 123.3C153.1 120.9 159 119.8 166.1 119.8C170.25 119.801 174.394 120.102 178.5 120.7C181.453 121.1 184.342 121.872 187.1 123C187.539 123.156 187.899 123.479 188.1 123.9C188.215 124.29 188.282 124.693 188.3 125.1V141.4C188.302 141.594 188.257 141.786 188.17 141.96C188.083 142.134 187.956 142.285 187.8 142.4C187.218 142.609 186.582 142.609 186 142.4Z" fill="black"/>
</svg>
